<svg xmlns="http://www.w3.org/2000/svg" version="1.1" xmlns:xlink="http://www.w3.org/1999/xlink" xmlns:svgjs="http://svgjs.dev/svgjs" width="2000" height="1247" viewBox="0 0 2000 1247"><g transform="matrix(1,0,0,1,-1.2121212121212466,0.504858299595071)"><svg viewBox="0 0 396 247" data-background-color="#ffffff" preserveAspectRatio="xMidYMid meet" height="1247" width="2000" xmlns="http://www.w3.org/2000/svg" xmlns:xlink="http://www.w3.org/1999/xlink"><g id="tight-bounds" transform="matrix(1,0,0,1,0.2400000000000091,-0.09999999999999432)"><svg viewBox="0 0 395.52 247.2" height="247.2" width="395.52"><g><svg></svg></g><g><svg viewBox="0 0 395.52 247.2" height="247.2" width="395.52"><g transform="matrix(1,0,0,1,75.54432,60.01980885690424)"><svg viewBox="0 0 244.43135999999998 127.1603822861915" height="127.1603822861915" width="244.43135999999998"><g><svg viewBox="0 0 293.658138040302 152.7696" height="127.1603822861915" width="244.43135999999998"><g><svg viewBox="0 0 159.2045129485179 152.7696" height="152.7696" width="159.2045129485179"><g id="textblocktransform"><svg viewBox="0 0 159.2045129485179 152.7696" height="152.7696" width="159.2045129485179" id="textblock"><g><svg viewBox="0 0 159.2045129485179 152.7696" height="152.7696" width="159.2045129485179"><g transform="matrix(1,0,0,1,0,0)"><svg width="159.2045129485179" viewBox="3 -32.05 33.4 32.05" height="152.7696" data-palette-color="#915eff"><path d="M33.25-32.05L36.4 0 32.8 0 32.05-9.75 30.35-25.7 30-25.7 21.1-3.7 17.8-3.7 9.35-25.7 8.95-25.7 7.25-10.05 6.4 0 3 0 6.35-32.05 10.9-32.05 12.55-27.15 19.5-8.9 19.8-8.9 27.1-27.45 28.75-32.05 33.25-32.05Z" opacity="1" transform="matrix(1,0,0,1,0,0)" fill="#915eff" class="wordmark-text-0" data-fill-palette-color="primary" id="text-0"></path></svg></g></svg></g></svg></g></svg></g><g transform="matrix(1,0,0,1,195.2697490381179,27.19060549890797)"><svg viewBox="0 0 98.38838900218406 98.38838900218406" height="98.38838900218406" width="98.38838900218406"><g data-palette-color="#915eff"><rect width="26.892826327263645" height="98.38838900218406" fill="#915eff" stroke="transparent" data-fill-palette-color="accent" x="0" fill-opacity="1"></rect><rect width="26.892826327263645" height="98.38838900218406" fill="#915eff" stroke="transparent" data-fill-palette-color="accent" x="32.79612966739469" fill-opacity="0.75"></rect><rect width="26.892826327263645" height="98.38838900218406" fill="#915eff" stroke="transparent" data-fill-palette-color="accent" x="65.59225933478938" fill-opacity="0.5"></rect></g></svg></g></svg></g></svg></g><g><path d="M245.816 0c68.262 0 123.6 55.338 123.6 123.6 0 68.262-55.338 123.6-123.6 123.6-38.412 0-72.732-17.522-95.402-45.01l7.559 0c21.582 24.106 52.941 39.276 87.843 39.276 65.096 0 117.866-52.771 117.866-117.866 0-65.096-52.771-117.866-117.866-117.866-34.902 0-66.261 15.17-87.843 39.276l-7.559 0c22.67-27.488 56.989-45.01 95.402-45.01z" fill="#915eff" stroke="transparent" data-fill-palette-color="tertiary"></path></g></svg></g><defs></defs></svg><rect width="395.52" height="247.2" fill="none" stroke="none" visibility="hidden"></rect></g></svg></g></svg>